<?xml version="1.0" encoding="utf-8"?>
<!-- Generator: Adobe Illustrator 22.0.0, SVG Export Plug-In . SVG Version: 6.00 Build 0)  -->
<svg version="1.1" id="Layer_1" xmlns="http://www.w3.org/2000/svg" xmlns:xlink="http://www.w3.org/1999/xlink" x="0px" y="0px"
	 viewBox="0 0 328.7 131.4" style="enable-background:new 0 0 328.7 131.4;" xml:space="preserve">
<style type="text/css">
	.st0{fill:#1572B7;}
	.st1{fill:#83BC28;}
	.st2{fill:#B4D85B;}
	.st3{fill:#B3DD64;}
</style>
<path class="st0" d="M11.2,105.3v20.5c0,1.7-0.6,3.1-1.7,4.1c-1.1,1-2.4,1.5-3.9,1.5c-1.5,0-2.8-0.5-3.9-1.5c-1.1-1-1.7-2.4-1.7-4.1
	V65.3c0-6.6,2.4-12.3,7.1-17s10.4-7.1,17-7.1c6.6,0,12.3,2.4,17,7.1c4.7,4.7,7.1,10.4,7.1,17V86c0,6.6-2.4,12.3-7.1,17
	c-4.7,4.7-10.4,7.1-17,7.1C19.1,110.1,14.8,108.5,11.2,105.3z M11.2,65.3V86c0,3.6,1.2,6.6,3.8,9.1c2.5,2.5,5.5,3.8,9.1,3.8
	s6.6-1.2,9.1-3.8c2.5-2.5,3.8-5.5,3.8-9.1V65.3c0-3.6-1.3-6.6-3.8-9.1c-2.5-2.5-5.5-3.8-9.1-3.8s-6.6,1.3-9.1,3.8
	C12.4,58.7,11.2,61.7,11.2,65.3z"/>
<path class="st0" d="M63.2,30.8c-1.5-1.5-2.2-3.2-2.2-5.2c0-2,0.7-3.8,2.2-5.2c1.5-1.5,3.2-2.2,5.2-2.2c2,0,3.8,0.7,5.2,2.2
	c1.5,1.5,2.2,3.2,2.2,5.2c0,2-0.7,3.8-2.2,5.2c-1.5,1.5-3.2,2.2-5.2,2.2C66.4,32.9,64.7,32.2,63.2,30.8z M62.8,104.4V49
	c0-1.7,0.6-3.1,1.7-4.1c1.1-1,2.4-1.5,3.9-1.5c1.5,0,2.8,0.5,3.9,1.5c1.1,1,1.7,2.4,1.7,4.1v55.4c0,1.7-0.6,3.1-1.7,4.1
	c-1.1,1-2.4,1.5-3.9,1.5c-1.5,0-2.8-0.5-3.9-1.5C63.4,107.5,62.8,106.1,62.8,104.4z"/>
<path class="st0" d="M123.3,96.6c-1-1.2-2.4-1.8-4.1-1.8c-1,0-2.5,0.7-4.6,2.1c-2.1,1.4-4.2,2.1-6.1,2.1c-2.6,0-4.6-0.7-6-2
	c-1.4-1.3-2.1-2.9-2.1-4.8V53.6h17.6c1.7,0,3.1-0.6,4.1-1.7c1-1.1,1.5-2.4,1.5-3.9c0-1.5-0.5-2.8-1.5-3.9c-1-1.1-2.4-1.7-4.1-1.7
	h-17.6v-12c0-1.7-0.6-3.1-1.7-4.1c-1.1-1-2.4-1.5-3.9-1.5c-1.5,0-2.8,0.5-3.9,1.5c-1.1,1-1.7,2.4-1.7,4.1v9.5
	c3.2,0.6,4.3,4.1,3.4,6.7c3.3,2.5,2.3,9.1-2.9,9.1c-0.2,0-0.3,0-0.5,0v36.4c0,5.2,1.8,9.4,5.5,12.9c3.7,3.4,8.3,5.2,13.7,5.2
	c4.8,0,9.2-1.5,13.2-4.5c2.2-1.6,3.2-3.1,3.2-4.7C124.8,99.3,124.3,97.9,123.3,96.6z"/>
<path class="st0" d="M138.8,30.8c-1.5-1.5-2.2-3.2-2.2-5.2c0-2,0.7-3.8,2.2-5.2c1.5-1.5,3.2-2.2,5.2-2.2c2,0,3.8,0.7,5.2,2.2
	c1.5,1.5,2.2,3.2,2.2,5.2c0,2-0.7,3.8-2.2,5.2c-1.5,1.5-3.2,2.2-5.2,2.2C142,32.9,140.3,32.2,138.8,30.8z M138.5,104.4V49
	c0-1.7,0.6-3.1,1.7-4.1c1.1-1,2.4-1.5,3.9-1.5c1.5,0,2.8,0.5,3.9,1.5c1.1,1,1.7,2.4,1.7,4.1v55.4c0,1.7-0.6,3.1-1.7,4.1
	c-1.1,1-2.4,1.5-3.9,1.5c-1.5,0-2.8-0.5-3.9-1.5C139,107.5,138.5,106.1,138.5,104.4z"/>
<path class="st0" d="M205.8,90.2c0,6-2.3,10.8-6.9,14.4c-4.6,3.7-10,5.5-16.2,5.5c-3.5,0-7.1-0.8-10.8-2.3c-3.7-1.5-6.4-3.6-8.2-6.3
	c-0.7-1-1.1-2.2-1.1-3.4c0-1.5,0.6-2.8,1.8-3.9c1.2-1.1,2.5-1.7,4-1.7c1.6,0,3.1,0.8,4.5,2.5c2.2,2.8,5.5,4.1,9.7,4.1
	c3.7,0,6.6-0.9,8.7-2.7c2.1-1.8,3.1-3.9,3.1-6.2c0-2.5-1.1-4.5-3.3-6.3c-2.2-1.7-4.8-3.2-7.8-4.4c-3-1.2-6.1-2.5-9.2-3.7
	c-3.1-1.3-5.8-3.3-7.9-6c-2.2-2.8-3.2-6.2-3.2-10.3c0-5.7,2.1-10.2,6.2-13.4c4.1-3.2,8.8-4.8,14.2-4.8c3.6,0,7.1,0.9,10.7,2.7
	c3.5,1.8,6.3,4.2,8.2,7.2c0.6,0.9,0.9,1.9,0.9,3.1c0,1.6-0.6,2.9-1.7,4c-1.2,1.1-2.5,1.6-4.1,1.6c-1.6,0-3.1-0.9-4.5-2.7
	c-2.3-3.3-5.5-4.9-9.5-4.9c-2.9,0-5.2,0.7-6.8,2.1c-1.6,1.4-2.4,3.1-2.4,5.1c0,2.1,1.1,3.8,3.3,5.3s4.8,2.8,7.8,4.1
	c3,1.3,6.1,2.6,9.2,3.9c3.1,1.3,5.8,3.5,7.9,6.5C204.7,82.2,205.8,85.9,205.8,90.2z"/>
<path class="st0" d="M232.3,23.8v23.3c3.6-3.2,7.9-4.8,12.9-4.8c6.6,0,12.3,2.4,17,7.1c4.7,4.7,7.1,10.4,7.1,17v38.1
	c0,1.7-0.6,3.1-1.7,4.1c-1.1,1-2.4,1.5-3.9,1.5c-1.5,0-2.8-0.5-3.9-1.5s-1.7-2.4-1.7-4.1V66.3c0-3.6-1.3-6.6-3.8-9.1
	c-2.5-2.5-5.5-3.8-9.1-3.8s-6.6,1.3-9.1,3.8c-2.5,2.5-3.8,5.5-3.8,9.1v38.1c0,1.7-0.6,3.1-1.7,4.1c-1.1,1-2.4,1.5-3.9,1.5
	c-1.5,0-2.8-0.5-3.9-1.5s-1.7-2.4-1.7-4.1V23.8c0-1.7,0.6-3.1,1.7-4.1c1.1-1,2.4-1.5,3.9-1.5c1.5,0,2.8,0.5,3.9,1.5
	C231.7,20.7,232.3,22,232.3,23.8z"/>
<path class="st0" d="M328.7,62.7v25.9c0,6.3-2.2,11.4-6.7,15.5c-4.4,4-9.7,6-15.8,6c-6.1,0-11.4-1.8-15.9-5.4
	c-4.5-3.6-6.7-8.5-6.7-14.9c0-5.7,2-10.3,5.9-13.7c4-3.4,9-5.7,15.1-7l12.9-2.8v-3.6c0-6.9-3.7-10.3-11.1-10.3c-2.4,0-4.4,0.6-6,1.7
	c-1.6,1.2-3.1,2.3-4.4,3.4c-1.3,1.1-2.6,1.7-4,1.7c-1.6,0-2.9-0.5-4-1.6c-1.1-1.1-1.6-2.4-1.6-4s0.7-3.1,2-4.6
	c4.6-5.2,10.6-7.8,18-7.8c6.9,0,12.3,2,16.3,6C326.7,51.2,328.7,56.4,328.7,62.7z M317.5,77.2l-11.8,2.7c-3.5,0.7-6.2,2-8.1,3.9
	c-1.9,1.8-2.9,3.8-2.9,6c0,2.8,1,5,3,6.7c2,1.7,4.8,2.5,8.3,2.5c3.4,0,6.1-1,8.2-2.9c2.1-1.9,3.2-4.4,3.2-7.4V77.2z"/>
<rect x="89.2" y="33" class="st0" width="11" height="41"/>
<circle class="st1" cx="127.2" cy="10" r="6"/>
<circle class="st2" cx="108.2" cy="6" r="6"/>
<circle class="st3" cx="89.2" cy="10" r="6"/>
</svg>
